<svg width="240" height="10" viewBox="0 0 240 10" fill="none" xmlns="http://www.w3.org/2000/svg">
<path d="M5.19998 3.73722V4.90909H0.427256V3.73722H5.19998ZM11.9494 3.73722V4.90909H7.17667V3.73722H11.9494ZM18.6988 3.73722V4.90909H13.9261V3.73722H18.6988ZM25.4482 3.73722V4.90909H20.6755V3.73722H25.4482ZM32.1976 3.73722V4.90909H27.4249V3.73722H32.1976ZM38.9471 3.73722V4.90909H34.1743V3.73722H38.9471ZM45.6965 3.73722V4.90909H40.9237V3.73722H45.6965ZM52.4459 3.73722V4.90909H47.6732V3.73722H52.4459ZM59.1953 3.73722V4.90909H54.4226V3.73722H59.1953ZM65.9447 3.73722V4.90909H61.172V3.73722H65.9447ZM72.6941 3.73722V4.90909H67.9214V3.73722H72.6941ZM79.4435 3.73722V4.90909H74.6708V3.73722H79.4435ZM86.1929 3.73722V4.90909H81.4202V3.73722H86.1929ZM92.9424 3.73722V4.90909H88.1696V3.73722H92.9424ZM99.6918 3.73722V4.90909H94.9191V3.73722H99.6918ZM117.284 9.17045C116.545 9.17045 115.897 8.99467 115.34 8.64311C114.786 8.29155 114.352 7.79972 114.04 7.16761C113.731 6.53551 113.576 5.79687 113.576 4.9517C113.576 4.09943 113.731 3.35547 114.04 2.71982C114.352 2.08416 114.786 1.59055 115.34 1.23899C115.897 0.887429 116.545 0.711648 117.284 0.711648C118.022 0.711648 118.669 0.887429 119.223 1.23899C119.78 1.59055 120.213 2.08416 120.522 2.71982C120.835 3.35547 120.991 4.09943 120.991 4.9517C120.991 5.79687 120.835 6.53551 120.522 7.16761C120.213 7.79972 119.78 8.29155 119.223 8.64311C118.669 8.99467 118.022 9.17045 117.284 9.17045ZM117.284 8.04119C117.845 8.04119 118.307 7.89737 118.669 7.60973C119.031 7.32209 119.299 6.94389 119.473 6.47514C119.647 6.00639 119.734 5.49858 119.734 4.9517C119.734 4.40483 119.647 3.89524 119.473 3.42294C119.299 2.95064 119.031 2.56889 118.669 2.2777C118.307 1.98651 117.845 1.84091 117.284 1.84091C116.723 1.84091 116.261 1.98651 115.899 2.2777C115.537 2.56889 115.269 2.95064 115.095 3.42294C114.921 3.89524 114.834 4.40483 114.834 4.9517C114.834 5.49858 114.921 6.00639 115.095 6.47514C115.269 6.94389 115.537 7.32209 115.899 7.60973C116.261 7.89737 116.723 8.04119 117.284 8.04119ZM122.76 9V0.818182H123.975V2.05398H124.06C124.209 1.64915 124.479 1.32067 124.87 1.06854C125.26 0.816406 125.7 0.69034 126.191 0.69034C126.283 0.69034 126.398 0.692116 126.537 0.695667C126.675 0.699218 126.78 0.704545 126.851 0.711648V1.99006C126.808 1.9794 126.711 1.96342 126.558 1.94212C126.409 1.91726 126.251 1.90483 126.084 1.90483C125.686 1.90483 125.331 1.98828 125.019 2.15518C124.71 2.31854 124.465 2.54581 124.284 2.837C124.106 3.12464 124.017 3.45312 124.017 3.82244V9H122.76ZM145.085 3.73722V4.90909H140.312V3.73722H145.085ZM151.834 3.73722V4.90909H147.062V3.73722H151.834ZM158.584 3.73722V4.90909H153.811V3.73722H158.584ZM165.333 3.73722V4.90909H160.56V3.73722H165.333ZM172.083 3.73722V4.90909H167.31V3.73722H172.083ZM178.832 3.73722V4.90909H174.059V3.73722H178.832ZM185.581 3.73722V4.90909H180.809V3.73722H185.581ZM192.331 3.73722V4.90909H187.558V3.73722H192.331ZM199.08 3.73722V4.90909H194.308V3.73722H199.08ZM205.83 3.73722V4.90909H201.057V3.73722H205.83ZM212.579 3.73722V4.90909H207.806V3.73722H212.579ZM219.328 3.73722V4.90909H214.556V3.73722H219.328ZM226.078 3.73722V4.90909H221.305V3.73722H226.078ZM232.827 3.73722V4.90909H228.055V3.73722H232.827ZM239.577 3.73722V4.90909H234.804V3.73722H239.577Z" fill="#A0A7AE"/>
</svg>
